# xmcd CD Database Entry
#
# Track frame offsets:
# 150
# 25852
# 37861
# 61387
# 95507
# 125894
# 148136
# 165207
# 191335
# 208508
# 222677
# 251607
#
# Disc length: 3845 seconds
#
# Revision: 1
# Processed by: cddbd v1.4b41PL1 Copyright (c) Steve Scherf et al.
# Submitted via: tcd 2.0b
#
DISCID=ad0f030c
DTITLE=Groove Total II
DYEAR=1900
DGENRE=
TTITLE0=Groove Total Blues
TTITLE1=Lady Madonna
TTITLE2=The Logical Song
TTITLE3=The Rose
TTITLE4=Return odf the Prodigal Son
TTITLE5=I'm beginning to see the Light
TTITLE6=Summer Nights
TTITLE7=Blowin' in the Wind
TTITLE8=Goodnight Vienna
TTITLE9=Here's tha Rainy Day
TTITLE10=Golden Eye
TTITLE11=Ode an die Freude
EXTD=
EXTT0=
EXTT1=
EXTT2=
EXTT3=
EXTT4=
EXTT5=
EXTT6=
EXTT7=
EXTT8=
EXTT9=
EXTT10=
EXTT11=
PLAYORDER=
